<?xml version="1.0" encoding="utf-8"?>
<!-- Generator: Adobe Illustrator 21.0.0, SVG Export Plug-In . SVG Version: 6.00 Build 0)  -->
<svg version="1.1" id="Layer_1" xmlns="http://www.w3.org/2000/svg" xmlns:xlink="http://www.w3.org/1999/xlink" x="0px" y="0px"
	 viewBox="0 0 56.7 56.7" style="enable-background:new 0 0 56.7 56.7;" xml:space="preserve">
<style type="text/css">
	.st0{fill:#425563;}
</style>
<g>
	<path class="st0" d="M43.9,28.2H12.8c-4.9,0-9,4-9,9v7.2c0,4.9,4,9,9,9h31.1c4.9,0,9-4,9-9v-7.2C52.9,32.2,48.9,28.2,43.9,28.2z
		 M19.3,33.8h-2.9v14.4h-2.8V33.8h-2.9v-2.4h8.6C19.3,31.4,19.3,33.8,19.3,33.8z M27.5,48.2H25v-1.4c-0.5,0.5-0.9,0.9-1.4,1.1
		c-0.5,0.3-1,0.4-1.4,0.4c-0.6,0-1-0.2-1.3-0.6c-0.3-0.4-0.4-0.9-0.4-1.7V35.8h2.5v9.5c0,0.3,0.1,0.5,0.2,0.6
		c0.1,0.1,0.3,0.2,0.5,0.2c0.2,0,0.4-0.1,0.7-0.3c0.3-0.2,0.5-0.4,0.8-0.7v-9.4h2.5V48.2z M36.5,45.6c0,0.9-0.2,1.6-0.6,2
		c-0.4,0.5-1,0.7-1.7,0.7c-0.5,0-0.9-0.1-1.3-0.3c-0.4-0.2-0.7-0.5-1.1-0.8v1h-2.5V31.4h2.5v5.4c0.3-0.4,0.7-0.7,1.1-0.9
		c0.4-0.2,0.8-0.3,1.1-0.3c0.8,0,1.4,0.3,1.8,0.8c0.4,0.5,0.6,1.3,0.6,2.3L36.5,45.6L36.5,45.6z M45.1,42.3h-4.7v2.3
		c0,0.7,0.1,1.1,0.2,1.4c0.2,0.3,0.4,0.4,0.8,0.4c0.4,0,0.7-0.1,0.9-0.3c0.2-0.2,0.2-0.7,0.2-1.4v-0.6h2.6v0.6
		c0,1.3-0.3,2.2-0.9,2.9c-0.6,0.6-1.5,1-2.8,1c-1.1,0-2-0.3-2.6-1c-0.6-0.7-1-1.6-1-2.8v-5.6c0-1.1,0.4-2,1.1-2.6
		c0.7-0.7,1.6-1,2.7-1c1.1,0,2,0.3,2.6,0.9c0.6,0.6,0.9,1.5,0.9,2.7V42.3z"/>
	<path class="st0" d="M41.5,37.6c-0.4,0-0.7,0.1-0.8,0.3c-0.2,0.2-0.3,0.6-0.3,1.1v1.3h2.2v-1.3c0-0.5-0.1-0.9-0.3-1.1
		C42.1,37.8,41.8,37.6,41.5,37.6z"/>
	<path class="st0" d="M32.9,37.6c-0.2,0-0.4,0-0.5,0.1c-0.2,0.1-0.3,0.2-0.5,0.4v7.7c0.2,0.2,0.4,0.4,0.6,0.4
		c0.2,0.1,0.4,0.1,0.6,0.1c0.3,0,0.5-0.1,0.7-0.3c0.1-0.2,0.2-0.5,0.2-0.9v-6.4c0-0.4-0.1-0.7-0.3-1C33.5,37.7,33.2,37.6,32.9,37.6z
		"/>
	<polygon class="st0" points="16.9,23.9 20,23.9 20,16.2 23.7,5.4 20.5,5.4 18.5,12.8 18.3,12.8 16.3,5.4 13.1,5.4 16.9,16.6 	"/>
	<path class="st0" d="M27.9,24.2c1.3,0,2.3-0.3,3-1c0.7-0.7,1.1-1.6,1.1-2.8v-7.1c0-1-0.4-1.9-1.1-2.6c-0.7-0.7-1.7-1-2.8-1
		c-1.3,0-2.3,0.3-3,0.9c-0.8,0.6-1.1,1.5-1.1,2.5v7.1c0,1.2,0.4,2.1,1.1,2.8C25.7,23.9,26.7,24.2,27.9,24.2z M26.8,13.2
		c0-0.3,0.1-0.5,0.3-0.7c0.2-0.2,0.5-0.3,0.8-0.3c0.4,0,0.7,0.1,0.9,0.3c0.2,0.2,0.3,0.4,0.3,0.7v7.5c0,0.4-0.1,0.7-0.3,0.9
		c-0.2,0.2-0.5,0.3-0.9,0.3c-0.4,0-0.7-0.1-0.9-0.3c-0.2-0.2-0.3-0.5-0.3-0.9L26.8,13.2L26.8,13.2z"/>
	<path class="st0" d="M36.2,24.1c0.5,0,1.1-0.1,1.6-0.4c0.6-0.3,1.1-0.7,1.6-1.3v1.5h2.8V10.2h-2.8v10.4c-0.3,0.3-0.5,0.5-0.9,0.7
		c-0.3,0.2-0.6,0.3-0.8,0.3c-0.3,0-0.5-0.1-0.6-0.2c-0.1-0.1-0.2-0.4-0.2-0.7V10.2h-2.8v11.4c0,0.8,0.2,1.4,0.5,1.8
		C35.1,23.9,35.6,24.1,36.2,24.1z"/>
</g>
</svg>
