<svg xmlns="http://www.w3.org/2000/svg" version="1.1" id="Layer_1" x="0" y="0" viewBox="0 0 495 375" xml:space="preserve"><style>.st2{fill:#ed8b00}</style><path fill="#fff" d="M5 6h485v198H5z"/><path d="M5 105v99h485V6H5v99zm449-80.6c8.5 1.5 14.9 3.2 16.7 4.4.9.6-.1 4.8-3.8 16.2-2.7 8.5-5.1 15.6-5.3 15.7-.2.2-2.3-.5-4.7-1.6-14.8-6.5-45.7-6.8-55.3-.6-2.9 1.9-5 6.7-4.9 11.1.2 6.7 5.5 10.9 21.6 17.3 27 10.7 37.3 21.3 39.3 40.3 2.1 21.2-8.6 40.6-27.7 50.1-19.3 9.5-49.1 12.2-77 6.7-12-2.3-20.9-4.8-20.9-5.8 0-.9 9.1-30.6 9.5-31 .2-.2 3.4.8 7 2.3 9.3 3.7 19.9 5.5 32.4 5.5 21.9 0 33.1-6.1 33.1-18 0-9.1-4.5-13-24-21-15.3-6.3-20-9-26.6-15.2-6.7-6.3-9.6-12.9-10.2-22.9-1.8-29.9 17.9-49.8 54.3-54.8 8.9-1.3 36.7-.5 46.5 1.3zM121.4 80.3c10.5 35.7 16.3 54.2 16.8 53 .4-1 5.3-24.8 10.8-52.8 5.6-28.1 10.4-52 10.7-53.3.5-2.2.6-2.2 20.5-2.2 19.7 0 20 0 19.5 2-.3 1.2-7.9 36.9-16.8 79.6L166.6 184l-26.4-.2-26.5-.3-16.3-54.3C88.5 99.3 81 74.7 80.8 74.5c-.2-.2-5.2 24.3-11.2 54.5l-10.8 55h-40l.5-2.8c.3-1.5 7.8-36.8 16.6-78.6C44.8 60.9 52 26.4 52 25.9c0-.6 11.3-.8 26.7-.7l26.7.3 16 54.8zm136.1-53.1c-1.7 7.5-11.5 56.2-11.5 57.4 0 1.2 4.2 1.4 24.8 1.4h24.7l5.9-29.3c3.3-16 6.1-29.8 6.4-30.5.3-.9 5.5-1.2 21.3-1.2 11.5 0 20.9.3 20.9.7 0 .5-7.3 36.2-16.2 79.5L317.6 184H275l.5-2.3c.7-2.9 13.5-64.8 13.5-65.3 0-.8-50-.4-50 .3-.1.5-3.1 15.6-6.9 33.8l-6.7 33-21.3.3-21.3.2.5-2.2c.3-1.3 7.6-37.1 16.4-79.5L215.5 25H258l-.5 2.2z" fill="#005eb8"/><path class="st2" d="M84.7 282.2c-.4 11.2-.7 35-.7 53V368h18v-23c0-25.8.5-28.5 6.2-32 2.3-1.4 5-2 9-2 4.9 0 6.2.4 8.8 2.7 1.9 1.7 3.5 4.4 4 6.8.5 2.2 1 13.8 1 25.7V368h18v-23c0-13.1-.5-25.2-1.1-28.2-2.3-10.6-7.5-17.4-16.8-21.6-4.6-2.1-6.4-2.4-13.1-2-5.6.3-8.8 1.1-11.4 2.6-2.1 1.2-3.9 2.2-4.2 2.2-.2 0-.1-8.1.2-18l.7-18h-18l-.6 20.2zM241 277.5v8.5h19v-17h-19v8.5zM33.7 293c-21.9 3.7-36.4 27.2-30.2 48.5 7.8 27 40.1 36.8 61.5 18.8 3.6-3 11-13.8 11-16 0-1-2.1-1.3-8.8-1.3-8.4 0-8.8.1-11.6 3-8.6 9.2-21.8 9.2-30.7 0-8.4-8.6-8.7-20.4-.8-29.3 8.1-9.2 21-10.1 29.8-2.1 3.8 3.3 4 3.4 12.9 3.4H76l-1.1-2.7c-1.7-4.7-8-12.2-12.7-15.5-8.6-5.9-18.9-8.4-28.5-6.8zM182.3 294.8c-13.4 4.8-22.5 15.5-25.3 29.9-5 25.4 19.2 49.5 44.6 44.3 15.7-3.2 27.6-15.5 30.6-31.8 3-16-5.9-33-21-40.4-5.7-2.8-7.9-3.3-15.2-3.6-6.3-.2-9.9.3-13.7 1.6zm23.4 17.8c6.8 3.9 10.3 10.4 10.3 18.7-.1 13.3-10.6 22.7-23.8 21.4-10.5-1.1-17.9-8.8-18.9-19.6-1.6-17.7 16.9-29.5 32.4-20.5z"/><path d="M190.4 320.9c-6.8 2.9-8.7 13-3.5 18.2 2.4 2.4 3.8 2.9 7.6 2.9s5.2-.5 7.6-2.9c6.1-6.1 2.4-17.5-6.1-18.6-1.9-.3-4.5-.1-5.6.4z" fill="#8a1538"/><path class="st2" d="M294.3 294.8c-27.7 9.8-34.6 45.1-12.6 65.2 14.7 13.4 37.6 12.8 51.8-1.5 3.6-3.6 9.5-12.9 9.5-15 0-.3-4-.5-8.8-.5-8.6 0-8.9.1-11.8 3.1-10.4 11.1-28.6 8.3-35-5.5-4.1-8.7-2.8-17.1 3.8-24.2 4.8-5.2 12.2-7.9 18.5-6.8 4.6.8 11.7 4.7 13.6 7.5 1.3 1.8 2.4 1.9 10.6 1.7l9.2-.3-2.6-5.2c-3.3-6.5-10.9-13.7-18.3-17.1-7.5-3.5-20.1-4.1-27.9-1.4zM371.7 295.4c-15.7 6.5-24.4 20.6-23.5 38 .4 6.9 1 9.6 3.6 14.9 9.1 18.3 30.9 26.1 49.9 17.7 5.9-2.6 12.8-9.3 15.8-15.3l2.6-5.2-9.6-.3c-9.2-.3-9.7-.2-11.5 2.1-2.8 3.5-8.1 5.7-13.8 5.7-8.6 0-13.6-3-17.3-10.2-1-2.1-1.9-4-1.9-4.3s12.7-.5 28.1-.5h28.2l-.6-7.8c-1.8-22.8-15.9-37.1-36.7-37.1-5.6 0-8.9.5-13.3 2.3zM394 311c3.8 1.9 9 8.1 9 10.7 0 1-4.1 1.3-18 1.3-19.9 0-19.8.1-15.5-6.3 5.1-7.4 16.1-10 24.5-5.7zM447.5 294.3c-12.2 4.1-18.5 11.5-18.5 21.9 0 12.2 8.3 17.9 32.3 22.2 10.9 2 12.7 3.1 12.7 7.3 0 4.1-2.9 6.1-9.6 6.9-6.9.8-13.2-1.1-17.1-5.2-3.1-3.4-3.3-3.4-11.7-3.4-10 0-10.2.3-6 8.8 4.3 8.6 13.3 14.5 24.9 16.1 25.1 3.6 45-14.1 36.6-32.5-3.3-7.2-9.3-10.3-27.3-13.9-13.3-2.6-17.1-4.4-16.6-7.8.9-6.6 18.5-7.6 23.7-1.4 1.1 1.4 3.2 1.7 10.8 1.7 9.3 0 9.4 0 8.7-2.3-2.2-7.1-7.6-13.1-15-16.7-6-2.9-21.4-3.8-27.9-1.7zM241 331.5V368h19v-73h-19v36.5z"/></svg>