<?xml version="1.0" encoding="utf-8"?>
<!-- Generator: Adobe Illustrator 21.0.0, SVG Export Plug-In . SVG Version: 6.00 Build 0)  -->
<svg version="1.1" id="Layer_1" xmlns:sketch="http://www.bohemiancoding.com/sketch/ns"
	 xmlns="http://www.w3.org/2000/svg" xmlns:xlink="http://www.w3.org/1999/xlink" x="0px" y="0px" viewBox="0 0 56.8 56.8"
	 style="enable-background:new 0 0 56.8 56.8;" xml:space="preserve">
<style type="text/css">
	.st0{fill:#425563;}
</style>
<title></title>
<desc></desc>
<g id="black">
	<g id="slice" transform="translate(-600.000000, 0.000000)">
	</g>
	<g id="linkedin" transform="translate(16.000000, 17.000000)">
		<path class="st0" d="M-1.5,36.8V4h-10.1v32.8H-1.5z M-1.5-7.7c-0.1-2.9-2-5.2-5.2-5.2c-3.2,0-5.3,2.2-5.3,5.2c0,2.9,2,5.2,5.1,5.2
			h0.1C-3.5-2.5-1.5-4.8-1.5-7.7z M15.1,36.8V18.1c0-1,0.1-2,0.4-2.7c0.8-2,2.6-4.1,5.7-4.1c4,0,6.6,2.3,6.6,6.8v18.7h10.2V17.6
			c0-10.3-5.5-15.1-12.8-15.1c-6,0-8.6,3.4-10.1,5.6l0.1-4.4H4.9c0.1,3.1,0,33,0,33H15.1z"/>
	</g>
</g>
</svg>
