<?xml version="1.0" encoding="utf-8"?>
<!-- Generator: Adobe Illustrator 21.0.0, SVG Export Plug-In . SVG Version: 6.00 Build 0)  -->
<svg version="1.1" id="Layer_1" xmlns="http://www.w3.org/2000/svg" xmlns:xlink="http://www.w3.org/1999/xlink" x="0px" y="0px"
	 viewBox="0 0 56.7 56.7" style="enable-background:new 0 0 56.7 56.7;" xml:space="preserve">
<style type="text/css">
	.st0{fill:#425563;}
</style>
<path class="st0" d="M3.4,31.1c6.2,0,12,2.4,16.4,6.8c4.4,4.4,6.8,10.3,6.8,16.5h9.5c0-18.1-14.7-32.8-32.7-32.8
	C3.4,21.5,3.4,31.1,3.4,31.1z M3.4,14.2c22.1,0,40,18,40,40.2H53C53,27,30.8,4.6,3.4,4.6C3.4,4.6,3.4,14.2,3.4,14.2z M16.6,47.7
	c0,3.6-3,6.6-6.6,6.6s-6.6-3-6.6-6.6c0-3.7,3-6.6,6.6-6.6S16.6,44.1,16.6,47.7z"/>
</svg>
