<?xml version="1.0" encoding="utf-8"?>
<!-- Generator: Adobe Illustrator 21.0.0, SVG Export Plug-In . SVG Version: 6.00 Build 0)  -->
<svg version="1.1" id="Layer_1" xmlns="http://www.w3.org/2000/svg" xmlns:xlink="http://www.w3.org/1999/xlink" x="0px" y="0px"
	 viewBox="0 0 91.5 70" style="enable-background:new 0 0 91.5 70;" xml:space="preserve">
<style type="text/css">
	.st0{fill:none;}
	.st1{fill:#FFFFFF;}
</style>
<path class="st0" d="M0,0h91.5v70H0V0z"/>
<path class="st1" d="M88.1,4.4l-1.9,5.9c-2.1-0.9-4.3-1.4-6.6-1.4c-3.2,0-5.7,0.5-5.7,2.9c0,4.2,11.6,2.6,11.6,11.6
	c0,8.2-7.7,10.3-14.6,10.3c-3.1-0.1-6.2-0.6-9.2-1.5l1.9-6c2.3,1.2,4.8,1.7,7.4,1.7c2.5,0,6.4-0.5,6.4-3.5c0-4.8-11.6-3-11.6-11.3
	c0-7.7,6.7-10,13.3-10C82.7,3,86.1,3.4,88.1,4.4 M65.2,3.6L59,33.2h-8l2.6-12.7h-9.4l-2.7,12.7h-8l6.3-29.6h7.9l-2.3,11.3h9.4
	l2.4-11.3L65.2,3.6z M36.8,3.6l-6.3,29.6h-9.9l-6.3-20.5h-0.1l-4.1,20.5H2.6L8.9,3.6h10L25,24.1h0.1l4.2-20.5L36.8,3.6z M0.5,47.4
	h10.1v2.7H4v4.2h6.1V57H4v4.8h6.8v2.7H0.5V47.4z M13.9,51.9H17v1.7c0.9-1.3,2.5-2.1,4.2-2c3,0,4.3,2.1,4.3,5v8h-3.3v-6.8
	c0-1.5,0-3.6-2.1-3.6c-2.4,0-2.9,2.6-2.9,4.2v6.2h-3.3C13.9,64.6,13.9,51.9,13.9,51.9z M40.6,51.9v11.5c0,3.5-1.4,6.7-6.7,6.7
	c-1.5,0-3-0.3-4.4-0.9l0.3-2.8c1.1,0.6,2.4,1,3.7,1.1c3.6,0,3.8-2.7,3.8-4.9c-0.9,1.3-2.4,2.1-3.9,2c-3.7,0-5.2-3-5.2-6.4
	c0-3,1.6-6.6,5.4-6.6c1.6-0.1,3.1,0.7,3.9,2v-1.7L40.6,51.9L40.6,51.9z M37.3,58.1c0-2.2-0.8-3.9-2.8-3.9c-2.2,0-3,2.1-3,4
	c0,1.7,0.9,3.8,2.8,3.8C36.5,62,37.3,60.2,37.3,58.1z M44.1,46.1h3.3v18.5h-3.3V46.1z M51.4,52.5c1.4-0.6,2.9-1,4.4-1
	c3.9,0,5.5,1.6,5.5,5.3v4.8c0,1,0.1,1.8,0.2,2.8h-2.9c-0.1-0.6-0.1-1.3-0.2-1.9c-0.8,1.4-2.3,2.2-3.9,2.2c-2.2,0-4.4-1.4-4.4-3.8
	c-0.1-1.5,0.8-3,2.2-3.6c1.3-0.6,2.8-0.8,4.3-0.7h1.8c0-2-0.9-2.7-2.9-2.7c-1.4,0-2.8,0.5-3.9,1.4C51.6,55.3,51.4,52.5,51.4,52.5z
	 M55.3,62.4c0.9,0,1.8-0.4,2.3-1.1c0.5-0.8,0.8-1.7,0.7-2.6h-1.4c-1.5,0-3.7,0.2-3.7,2.2C53.2,62,54.1,62.4,55.3,62.4z M64.6,51.9
	h3.1v1.7h0.1c0.9-1.3,2.5-2.1,4.2-2c3,0,4.3,2.1,4.3,5v8H73v-6.8c0-1.5,0-3.6-2.1-3.6c-2.4,0-2.9,2.6-2.9,4.2v6.2h-3.3
	C64.5,64.5,64.5,51.9,64.6,51.9z M88,63.1c-0.9,1.2-2.4,1.8-3.9,1.7c-3.9,0-5.3-3.2-5.3-6.7s1.4-6.6,5.3-6.6
	c1.5-0.1,2.9,0.6,3.8,1.8V46h3.3v18.5H88V63.1z M85,62.3c2.2,0,2.9-2.3,2.9-4.1s-0.8-4-3-4s-2.7,2.3-2.7,4S82.8,62.3,85,62.3z
	 M91.5,0H0v36.9h91.5V0z"/>
</svg>
